<?xml version="1.0" encoding="utf-8"?>
<!-- Generator: Adobe Illustrator 18.0.0, SVG Export Plug-In . SVG Version: 6.00 Build 0)  -->
<!DOCTYPE svg PUBLIC "-//W3C//DTD SVG 1.1//EN" "http://www.w3.org/Graphics/SVG/1.1/DTD/svg11.dtd">
<svg version="1.1" id="图层_1" xmlns="http://www.w3.org/2000/svg" xmlns:xlink="http://www.w3.org/1999/xlink" x="0px" y="0px"
	 viewBox="0 0 247.7 247.7" enable-background="new 0 0 247.7 247.7" xml:space="preserve">
<g>
	
		<circle fill="none" stroke="#5C5F57" stroke-width="5" stroke-linecap="round" stroke-linejoin="round" stroke-miterlimit="10" cx="123.9" cy="123.9" r="121.4"/>
	<g>
		
			<line fill="none" stroke="#5C5F57" stroke-width="3" stroke-linecap="round" stroke-linejoin="round" stroke-miterlimit="10" x1="174.1" y1="105" x2="182.8" y2="105"/>
		<path fill="none" stroke="#5C5F57" stroke-width="3" stroke-linecap="round" stroke-linejoin="round" stroke-miterlimit="10" d="
			M182.8,105c0.9-1.8,2.5-3.1,4.5-3.6c1.9-0.5,4,0,5.6,1.2"/>
		<path fill="none" stroke="#5C5F57" stroke-width="3" stroke-linecap="round" stroke-linejoin="round" stroke-miterlimit="10" d="
			M192.9,102.6c0.3-5.2,4.4-9.4,9.6-9.7c5.2-0.4,9.8,3.2,10.8,8.3"/>
		<path fill="none" stroke="#5C5F57" stroke-width="3" stroke-linecap="round" stroke-linejoin="round" stroke-miterlimit="10" d="
			M213.3,101.3c1.6-1.7,4.2-2.2,6.4-1.3c2.2,0.9,3.6,3.1,3.5,5.5"/>
		
			<line fill="none" stroke="#5C5F57" stroke-width="3" stroke-linecap="round" stroke-linejoin="round" stroke-miterlimit="10" x1="223.1" y1="105.4" x2="230.9" y2="105.4"/>
		
			<line fill="none" stroke="#5C5F57" stroke-width="3" stroke-linecap="round" stroke-linejoin="round" stroke-miterlimit="10" x1="214.3" y1="112.8" x2="219.3" y2="112.8"/>
	</g>
	<path fill="none" stroke="#5C5F57" stroke-width="3" stroke-linecap="round" stroke-linejoin="round" stroke-miterlimit="10" d="
		M29.8,111.9l5.1,0c0.2-2.3,2-4.2,4.3-4.6c2.3-0.4,4.6,0.9,5.4,3.1s0.1,4.7-1.8,6h17.7"/>
	
		<line fill="none" stroke="#5C5F57" stroke-width="3" stroke-linecap="round" stroke-linejoin="round" stroke-miterlimit="10" x1="32.3" y1="115.8" x2="21.2" y2="115.8"/>
	<path fill="none" stroke="#5C5F57" stroke-width="5" stroke-linecap="round" stroke-linejoin="round" stroke-miterlimit="10" d="
		M129.4,66.9c0,0,0-2.2,0-3.4c0-5-3.3-5.4-3.3-5.4v-3.8c0,0,0.9-1.7,1.4-3.4c1.6-5.3-3.7-5-3.7-5s-5.3-0.3-3.7,5
		c0.5,1.7,1.4,3.4,1.4,3.4V58c0,0-3.3,0.4-3.3,5.4c0,1.2,0,3.4,0,3.4"/>
	<path fill="none" stroke="#5C5F57" stroke-width="5" stroke-linecap="round" stroke-linejoin="round" stroke-miterlimit="10" d="
		M118.3,66.9c-6.6,7.4-15.2,12.8-24.7,15.7"/>
	<path fill="none" stroke="#5C5F57" stroke-width="5" stroke-linecap="round" stroke-linejoin="round" stroke-miterlimit="10" d="
		M129.4,66.9c6.6,7.4,15.2,12.8,24.7,15.7"/>
	<path fill="none" stroke="#5C5F57" stroke-width="5" stroke-linecap="round" stroke-linejoin="round" stroke-miterlimit="10" d="
		M93.6,82.5c0,0-12.8,3.2-12.8,8.6s6.3,7.6,7.4,8.2c1.4,2.1,3.4,3.1,4.4,3.5c0,1.8,0,7.4,0,7.4s-21.2,5.5-25.2,9.2
		c-2.2,2-2,3.4-2,4.3s1,3.6,7.1,6.4c2.2,1.2,4.6,2.4,4.6,2.4v3.1c0,0-1.6,0.6-1.6,4.1c-4.9,2.1-17.1,7-17.1,7s-6.8,3.3,0,8
		c3.1,1.7,7.4,2.4,7.4,2.4V178h116.1v-20.9c0,0,4.3-0.7,7.4-2.4c6.8-4.6,0-8,0-8s-12.2-4.9-17.1-7c0-3.4-1.6-4.1-1.6-4.1v-3.1
		c0,0,2.4-1.2,4.6-2.4c6.1-2.8,7.1-5.4,7.1-6.4s0.1-2.3-2-4.3c-3.9-3.8-25.2-9.2-25.2-9.2s0-5.6,0-7.4c1-0.4,3-1.4,4.4-3.5
		c1.1-0.7,7.4-2.8,7.4-8.2s-12.8-8.6-12.8-8.6"/>
	<path fill="none" stroke="#5C5F57" stroke-width="3" stroke-linecap="round" stroke-linejoin="round" stroke-miterlimit="10" d="
		M118.3,64.2c0,0,2-1.3,5.5-1.3c3.6,0,5.5,1.3,5.5,1.3"/>
	<path fill="none" stroke="#5C5F57" stroke-width="3" stroke-linecap="round" stroke-linejoin="round" stroke-miterlimit="10" d="
		M84.8,86c0,0,15.6-6.2,39-6.2s39,6.2,39,6.2"/>
	<path fill="none" stroke="#5C5F57" stroke-width="3" stroke-linecap="round" stroke-linejoin="round" stroke-miterlimit="10" d="
		M69.1,118.4"/>
	<path fill="none" stroke="#5C5F57" stroke-width="3" stroke-linecap="round" stroke-linejoin="round" stroke-miterlimit="10" d="
		M69.1,118.4"/>
	<path fill="none" stroke="#5C5F57" stroke-width="3" stroke-linecap="round" stroke-linejoin="round" stroke-miterlimit="10" d="
		M69.1,118.4"/>
	<path fill="none" stroke="#5C5F57" stroke-width="3" stroke-linecap="round" stroke-linejoin="round" stroke-miterlimit="10" d="
		M178.7,118.4"/>
	<path fill="none" stroke="#5C5F57" stroke-width="3" stroke-linecap="round" stroke-linejoin="round" stroke-miterlimit="10" d="
		M69.1,118.4"/>
	<path fill="none" stroke="#5C5F57" stroke-width="3" stroke-linecap="round" stroke-linejoin="round" stroke-miterlimit="10" d="
		M178.7,118.4"/>
	<path fill="none" stroke="#5C5F57" stroke-width="3" stroke-linecap="round" stroke-linejoin="round" stroke-miterlimit="10" d="
		M69.1,118.4"/>
	<path fill="none" stroke="#5C5F57" stroke-width="3" stroke-linecap="round" stroke-linejoin="round" stroke-miterlimit="10" d="
		M178.7,118.4"/>
	<path fill="none" stroke="#5C5F57" stroke-width="3" stroke-linecap="round" stroke-linejoin="round" stroke-miterlimit="10" d="
		M69.1,118.4"/>
	<path fill="none" stroke="#5C5F57" stroke-width="3" stroke-linecap="round" stroke-linejoin="round" stroke-miterlimit="10" d="
		M178.7,118.4"/>
	<path fill="none" stroke="#5C5F57" stroke-width="3" stroke-linecap="round" stroke-linejoin="round" stroke-miterlimit="10" d="
		M69.1,118.4"/>
	<path fill="none" stroke="#5C5F57" stroke-width="3" stroke-linecap="round" stroke-linejoin="round" stroke-miterlimit="10" d="
		M178.7,118.4"/>
	<path fill="none" stroke="#5C5F57" stroke-width="3" stroke-linecap="round" stroke-linejoin="round" stroke-miterlimit="10" d="
		M69.1,118.4"/>
	<path fill="none" stroke="#5C5F57" stroke-width="3" stroke-linecap="round" stroke-linejoin="round" stroke-miterlimit="10" d="
		M178.7,118.4"/>
	<path fill="none" stroke="#5C5F57" stroke-width="3" stroke-linecap="round" stroke-linejoin="round" stroke-miterlimit="10" d="
		M69.1,118.4"/>
	<path fill="none" stroke="#5C5F57" stroke-width="3" stroke-linecap="round" stroke-linejoin="round" stroke-miterlimit="10" d="
		M178.7,118.4"/>
	<path fill="none" stroke="#5C5F57" stroke-width="3" stroke-linecap="round" stroke-linejoin="round" stroke-miterlimit="10" d="
		M69.1,118.4"/>
	<path fill="none" stroke="#5C5F57" stroke-width="3" stroke-linecap="round" stroke-linejoin="round" stroke-miterlimit="10" d="
		M178.7,118.4"/>
	<path fill="none" stroke="#5C5F57" stroke-width="3" stroke-linecap="round" stroke-linejoin="round" stroke-miterlimit="10" d="
		M69.1,118.4"/>
	<path fill="none" stroke="#5C5F57" stroke-width="3" stroke-linecap="round" stroke-linejoin="round" stroke-miterlimit="10" d="
		M178.7,118.4"/>
	<path fill="none" stroke="#5C5F57" stroke-width="3" stroke-linecap="round" stroke-linejoin="round" stroke-miterlimit="10" d="
		M69.1,118.4"/>
	<path fill="none" stroke="#5C5F57" stroke-width="3" stroke-linecap="round" stroke-linejoin="round" stroke-miterlimit="10" d="
		M178.7,118.4"/>
	<path fill="none" stroke="#5C5F57" stroke-width="3" stroke-linecap="round" stroke-linejoin="round" stroke-miterlimit="10" d="
		M69.1,118.4"/>
	<path fill="none" stroke="#5C5F57" stroke-width="3" stroke-linecap="round" stroke-linejoin="round" stroke-miterlimit="10" d="
		M178.7,118.4"/>
	<path fill="none" stroke="#5C5F57" stroke-width="3" stroke-linecap="round" stroke-linejoin="round" stroke-miterlimit="10" d="
		M69.1,118.4"/>
	<path fill="none" stroke="#5C5F57" stroke-width="3" stroke-linecap="round" stroke-linejoin="round" stroke-miterlimit="10" d="
		M178.7,118.4"/>
	<path fill="none" stroke="#5C5F57" stroke-width="3" stroke-linecap="round" stroke-linejoin="round" stroke-miterlimit="10" d="
		M69.1,118.4"/>
	<path fill="none" stroke="#5C5F57" stroke-width="3" stroke-linecap="round" stroke-linejoin="round" stroke-miterlimit="10" d="
		M178.7,118.4"/>
	<path fill="none" stroke="#5C5F57" stroke-width="3" stroke-linecap="round" stroke-linejoin="round" stroke-miterlimit="10" d="
		M69.1,118.4"/>
	<path fill="none" stroke="#5C5F57" stroke-width="3" stroke-linecap="round" stroke-linejoin="round" stroke-miterlimit="10" d="
		M178.7,118.4"/>
	<path fill="none" stroke="#5C5F57" stroke-width="3" stroke-linecap="round" stroke-linejoin="round" stroke-miterlimit="10" d="
		M69.1,118.4"/>
	<path fill="none" stroke="#5C5F57" stroke-width="3" stroke-linecap="round" stroke-linejoin="round" stroke-miterlimit="10" d="
		M178.7,118.4"/>
	<path fill="none" stroke="#5C5F57" stroke-width="3" stroke-linecap="round" stroke-linejoin="round" stroke-miterlimit="10" d="
		M69.1,118.4"/>
	<path fill="none" stroke="#5C5F57" stroke-width="3" stroke-linecap="round" stroke-linejoin="round" stroke-miterlimit="10" d="
		M178.7,118.4"/>
	<path fill="none" stroke="#5C5F57" stroke-width="3" stroke-linecap="round" stroke-linejoin="round" stroke-miterlimit="10" d="
		M69.1,118.4"/>
	<path fill="none" stroke="#5C5F57" stroke-width="3" stroke-linecap="round" stroke-linejoin="round" stroke-miterlimit="10" d="
		M178.7,118.4"/>
	<path fill="none" stroke="#5C5F57" stroke-width="3" stroke-linecap="round" stroke-linejoin="round" stroke-miterlimit="10" d="
		M65.4,123.9c0,0,16.5-10.5,58.4-10.5s58.4,10.5,58.4,10.5"/>
	<path fill="none" stroke="#5C5F57" stroke-width="3" stroke-linecap="round" stroke-linejoin="round" stroke-miterlimit="10" d="
		M55.3,150.7c0,0,23.4-10.4,68.5-10.4s68.5,10.4,68.5,10.4"/>
	<path fill="none" stroke="#5C5F57" stroke-width="3" stroke-linecap="round" stroke-linejoin="round" stroke-miterlimit="10" d="
		M92.6,106.9c0,0,10.1-4,31.2-4s31.2,4,31.2,4"/>
	<path fill="none" stroke="#5C5F57" stroke-width="3" stroke-linecap="round" stroke-linejoin="round" stroke-miterlimit="10" d="
		M123.9,101.9c-2.3,0-6,0-7,0c-0.4,0.9-1.4,2.1-1.9,1.3s1-1.9,1-1.9V83.7c0,0-3-0.2-2.4-1.2s2.4,0.3,2.4,0.3h15.6
		c0,0,1.8-1.4,2.4-0.3s-2.4,1.2-2.4,1.2v17.6c0,0,1.5,1.1,1,1.9s-1.4-0.4-1.9-1.3C129.9,101.9,126.2,101.9,123.9,101.9z"/>
	<path fill="none" stroke="#5C5F57" stroke-width="3" stroke-linecap="round" stroke-linejoin="round" stroke-miterlimit="10" d="
		M75.4,131.8c0,0,11.6-7.9,48.5-7.9s48.5,7.9,48.5,7.9"/>
	<path fill="none" stroke="#5C5F57" stroke-width="3" stroke-linecap="round" stroke-linejoin="round" stroke-miterlimit="10" d="
		M77.1,135.7c0,0,16.5-5.5,46.8-5.5s46.7,5.5,46.7,5.5"/>
	<path fill="none" stroke="#5C5F57" stroke-width="3" stroke-linecap="round" stroke-linejoin="round" stroke-miterlimit="10" d="
		M62.5,156.4c0,0,14.6-8.8,61.3-8.8s61.3,8.8,61.3,8.8"/>
	<path fill="none" stroke="#5C5F57" stroke-width="3" stroke-linecap="round" stroke-linejoin="round" stroke-miterlimit="10" d="
		M87.3,98.9c4.8-3.4,17.6-6.9,28.8-6.9"/>
	<path fill="none" stroke="#5C5F57" stroke-width="3" stroke-linecap="round" stroke-linejoin="round" stroke-miterlimit="10" d="
		M160.5,98.9c-4.8-3.4-17.6-6.9-28.8-6.9"/>
	
		<line fill="none" stroke="#5C5F57" stroke-width="3" stroke-linecap="round" stroke-linejoin="round" stroke-miterlimit="10" x1="87.3" y1="127.4" x2="87.3" y2="133"/>
	
		<line fill="none" stroke="#5C5F57" stroke-width="3" stroke-linecap="round" stroke-linejoin="round" stroke-miterlimit="10" x1="160.5" y1="127.4" x2="160.5" y2="133"/>
	
		<line fill="none" stroke="#5C5F57" stroke-width="3" stroke-linecap="round" stroke-linejoin="round" stroke-miterlimit="10" x1="90.8" y1="126.7" x2="90.8" y2="132.7"/>
	
		<line fill="none" stroke="#5C5F57" stroke-width="3" stroke-linecap="round" stroke-linejoin="round" stroke-miterlimit="10" x1="157" y1="126.7" x2="157" y2="132.7"/>
	
		<line fill="none" stroke="#5C5F57" stroke-width="3" stroke-linecap="round" stroke-linejoin="round" stroke-miterlimit="10" x1="108.9" y1="124.4" x2="108.9" y2="130.8"/>
	
		<line fill="none" stroke="#5C5F57" stroke-width="3" stroke-linecap="round" stroke-linejoin="round" stroke-miterlimit="10" x1="138.9" y1="124.4" x2="138.9" y2="130.8"/>
	
		<line fill="none" stroke="#5C5F57" stroke-width="3" stroke-linecap="round" stroke-linejoin="round" stroke-miterlimit="10" x1="112.4" y1="124.1" x2="112.4" y2="130.5"/>
	
		<line fill="none" stroke="#5C5F57" stroke-width="3" stroke-linecap="round" stroke-linejoin="round" stroke-miterlimit="10" x1="135.4" y1="124.1" x2="135.4" y2="130.5"/>
	
		<line fill="none" stroke="#5C5F57" stroke-width="3" stroke-linecap="round" stroke-linejoin="round" stroke-miterlimit="10" x1="106.9" y1="148" x2="106.9" y2="178"/>
	
		<line fill="none" stroke="#5C5F57" stroke-width="3" stroke-linecap="round" stroke-linejoin="round" stroke-miterlimit="10" x1="140.9" y1="148" x2="140.9" y2="178"/>
	
		<line fill="none" stroke="#5C5F57" stroke-width="3" stroke-linecap="round" stroke-linejoin="round" stroke-miterlimit="10" x1="80" y1="151" x2="80" y2="178"/>
	
		<line fill="none" stroke="#5C5F57" stroke-width="3" stroke-linecap="round" stroke-linejoin="round" stroke-miterlimit="10" x1="167.8" y1="151" x2="167.8" y2="178"/>
	
		<line fill="none" stroke="#5C5F57" stroke-width="5" stroke-linecap="round" stroke-linejoin="round" stroke-miterlimit="10" x1="81.9" y1="178" x2="36.6" y2="178"/>
	
		<line fill="none" stroke="#5C5F57" stroke-width="5" stroke-linecap="round" stroke-linejoin="round" stroke-miterlimit="10" x1="165.9" y1="178" x2="211.1" y2="178"/>
	
		<line fill="none" stroke="#5C5F57" stroke-width="3" stroke-linecap="round" stroke-linejoin="round" stroke-miterlimit="10" x1="98.1" y1="192" x2="64.9" y2="192"/>
	
		<line fill="none" stroke="#5C5F57" stroke-width="3" stroke-linecap="round" stroke-linejoin="round" stroke-miterlimit="10" x1="149.6" y1="192" x2="182.9" y2="192"/>
	
		<line fill="none" stroke="#5C5F57" stroke-width="3" stroke-linecap="round" stroke-linejoin="round" stroke-miterlimit="10" x1="55.3" y1="192" x2="53.6" y2="192"/>
	
		<line fill="none" stroke="#5C5F57" stroke-width="3" stroke-linecap="round" stroke-linejoin="round" stroke-miterlimit="10" x1="192.4" y1="192" x2="194.2" y2="192"/>
	
		<line fill="none" stroke="#5C5F57" stroke-width="3" stroke-linecap="round" stroke-linejoin="round" stroke-miterlimit="10" x1="102.6" y1="178" x2="93.6" y2="210.9"/>
	
		<line fill="none" stroke="#5C5F57" stroke-width="3" stroke-linecap="round" stroke-linejoin="round" stroke-miterlimit="10" x1="145.1" y1="178" x2="154.1" y2="210.9"/>
	
		<line fill="none" stroke="#5C5F57" stroke-width="3" stroke-linecap="round" stroke-linejoin="round" stroke-miterlimit="10" x1="86.4" y1="210.9" x2="99.4" y2="210.9"/>
	
		<line fill="none" stroke="#5C5F57" stroke-width="3" stroke-linecap="round" stroke-linejoin="round" stroke-miterlimit="10" x1="148.5" y1="210.9" x2="161.5" y2="210.9"/>
	
		<line fill="none" stroke="#5C5F57" stroke-width="3" stroke-linecap="round" stroke-linejoin="round" stroke-miterlimit="10" x1="78.1" y1="210.9" x2="73.8" y2="210.9"/>
	
		<line fill="none" stroke="#5C5F57" stroke-width="3" stroke-linecap="round" stroke-linejoin="round" stroke-miterlimit="10" x1="172.8" y1="210.9" x2="168.5" y2="210.9"/>
</g>
</svg>
