<?xml version="1.0" encoding="utf-8"?>
<!-- Generator: Adobe Illustrator 18.0.0, SVG Export Plug-In . SVG Version: 6.00 Build 0)  -->
<!DOCTYPE svg PUBLIC "-//W3C//DTD SVG 1.1//EN" "http://www.w3.org/Graphics/SVG/1.1/DTD/svg11.dtd">
<svg version="1.1" id="图层_1" xmlns="http://www.w3.org/2000/svg" xmlns:xlink="http://www.w3.org/1999/xlink" x="0px" y="0px"
	 viewBox="0 0 247.7 247.7" enable-background="new 0 0 247.7 247.7" xml:space="preserve">
<circle fill="none" stroke="#5C5F57" stroke-width="5" stroke-linecap="round" stroke-linejoin="round" stroke-miterlimit="10" cx="123.9" cy="123.9" r="121.4"/>
<g>
	<path fill="none" stroke="#5C5F57" stroke-width="5" stroke-linecap="round" stroke-linejoin="round" stroke-miterlimit="10" d="
		M125.6,29.2c0,0-2.6-0.1-2.7,1.4c-0.1,0,0.4,7.8-3.9,12.7c-4.4,3.3-7.6,8.7-3.8,14.1c0.1,0-6.5,2.5-6.5,9.2s3.7,8.3,3.7,8.3
		l-14.2,3.2v3.9l12.3,2.5v8.5c0,0-4.7,0.7-4.7,5.6c0,2.9,3.1,4.4,3.1,4.4l-15.5,5.1v3.9l9.5,2.2c0,0-13,6.7-13,24.2
		c0,12.2,8.2,20.4,13.5,24.9c0-0.2-1.7,2.8-1.7,2.8v6.2l-6.3,3.3l-5.5,8.8v14.1c0,0,8.7,4.1,35.6,4.1c0,0,0,0,0,0l0,0
		c26.8,0,35.6-4.1,35.6-4.1v-14.1l-5.5-8.8l-6.3-3.3v-6.2c0,0-1.7-3-1.7-2.8c5.3-4.6,13.5-12.7,13.5-24.9c0-17.5-13-24.2-13-24.2
		l9.5-2.2v-3.9l-15.5-5.1c0,0,3.1-1.4,3.1-4.4c0-4.9-4.7-5.6-4.7-5.6v-8.5l12.3-2.5v-3.9L138.7,75c0,0,3.7-1.5,3.7-8.3
		s-6.6-9.2-6.5-9.2c3.8-5.4,0.6-10.8-3.8-14.1c-4.3-4.9-3.8-12.7-3.9-12.7C128.2,29.1,125.6,29.2,125.6,29.2"/>
	<path fill="none" stroke="#5C5F57" stroke-width="3" stroke-linecap="round" stroke-linejoin="round" stroke-miterlimit="10" d="
		M135.6,58c0,0-3.8-0.9-10-0.9c-6.2,0-10,0.9-10,0.9"/>
	<path fill="none" stroke="#5C5F57" stroke-width="3" stroke-linecap="round" stroke-linejoin="round" stroke-miterlimit="10" d="
		M138.6,75.7c0,0-4.9-0.9-13-0.9s-13,0.9-13,0.9"/>
	<path fill="none" stroke="#5C5F57" stroke-width="3" stroke-linecap="round" stroke-linejoin="round" stroke-miterlimit="10" d="
		M139.9,84.1c0,0-5.4-0.9-14.3-0.9s-14.3,0.9-14.3,0.9"/>
	<path fill="none" stroke="#5C5F57" stroke-width="3" stroke-linecap="round" stroke-linejoin="round" stroke-miterlimit="10" d="
		M139.9,93.7c0,0-5.4-0.9-14.2-0.9s-14.2,0.9-14.2,0.9"/>
	<path fill="none" stroke="#5C5F57" stroke-width="3" stroke-linecap="round" stroke-linejoin="round" stroke-miterlimit="10" d="
		M142.1,103.8c0,0-6.3-1.3-16.4-1.3s-16.4,1.3-16.4,1.3"/>
	
		<line fill="none" stroke="#5C5F57" stroke-width="3" stroke-linecap="round" stroke-linejoin="round" stroke-miterlimit="10" x1="102.5" y1="114" x2="148.8" y2="114"/>
	<path fill="none" stroke="#5C5F57" stroke-width="3" stroke-linecap="round" stroke-linejoin="round" stroke-miterlimit="10" d="
		M102.5,163c9,1.1,16.1,1.6,23.2,1.5c7,0,14.1-0.4,23.2-1.5"/>
	<path fill="none" stroke="#5C5F57" stroke-width="3" stroke-linecap="round" stroke-linejoin="round" stroke-miterlimit="10" d="
		M102.5,173c9,1.1,16.1,1.6,23.2,1.5c7,0,14.1-0.4,23.2-1.5"/>
	<path fill="none" stroke="#5C5F57" stroke-width="3" stroke-linecap="round" stroke-linejoin="round" stroke-miterlimit="10" d="
		M91.6,183.9c13.3,1.8,23.7,2.6,34,2.5c10.3,0.1,20.7-0.7,34-2.5"/>
	
		<circle fill="none" stroke="#5C5F57" stroke-width="3" stroke-linecap="round" stroke-linejoin="round" stroke-miterlimit="10" cx="109.1" cy="140.1" r="7.2"/>
	<path fill="none" stroke="#5C5F57" stroke-width="3" stroke-linecap="round" stroke-linejoin="round" stroke-miterlimit="10" d="
		M110.6,147.1c-3.2-0.7-5.6-3.6-5.6-7s2.4-6.3,5.6-7"/>
	
		<ellipse fill="none" stroke="#5C5F57" stroke-width="3" stroke-linecap="round" stroke-linejoin="round" stroke-miterlimit="10" cx="147.2" cy="140.1" rx="5.1" ry="7.2"/>
	<path fill="none" stroke="#5C5F57" stroke-width="3" stroke-linecap="round" stroke-linejoin="round" stroke-miterlimit="10" d="
		M146,133.1c1.8,0.8,3.1,3.6,3.1,7s-1.3,6.2-3.1,7"/>
	
		<line fill="none" stroke="#5C5F57" stroke-width="3" stroke-linecap="round" stroke-linejoin="round" stroke-miterlimit="10" x1="161.3" y1="190.7" x2="189.3" y2="190.7"/>
	
		<line fill="none" stroke="#5C5F57" stroke-width="3" stroke-linecap="round" stroke-linejoin="round" stroke-miterlimit="10" x1="199.4" y1="190.7" x2="202.7" y2="190.7"/>
	
		<line fill="none" stroke="#5C5F57" stroke-width="3" stroke-linecap="round" stroke-linejoin="round" stroke-miterlimit="10" x1="94.2" y1="176.7" x2="40.2" y2="176.7"/>
	
		<line fill="none" stroke="#5C5F57" stroke-width="3" stroke-linecap="round" stroke-linejoin="round" stroke-miterlimit="10" x1="30.1" y1="176.7" x2="26.2" y2="176.7"/>
	
		<line fill="none" stroke="#5C5F57" stroke-width="3" stroke-linecap="round" stroke-linejoin="round" stroke-miterlimit="10" x1="153.6" y1="157.6" x2="204.2" y2="157.6"/>
	
		<line fill="none" stroke="#5C5F57" stroke-width="3" stroke-linecap="round" stroke-linejoin="round" stroke-miterlimit="10" x1="215.9" y1="157.6" x2="221.5" y2="157.6"/>
	
		<line fill="none" stroke="#5C5F57" stroke-width="3" stroke-linecap="round" stroke-linejoin="round" stroke-miterlimit="10" x1="175.3" y1="173" x2="183.2" y2="173"/>
	
		<line fill="none" stroke="#5C5F57" stroke-width="3" stroke-linecap="round" stroke-linejoin="round" stroke-miterlimit="10" x1="70.3" y1="198.5" x2="63.7" y2="198.5"/>
	
		<line fill="none" stroke="#5C5F57" stroke-width="3" stroke-linecap="round" stroke-linejoin="round" stroke-miterlimit="10" x1="93" y1="212.7" x2="86.9" y2="212.7"/>
	
		<line fill="none" stroke="#5C5F57" stroke-width="3" stroke-linecap="round" stroke-linejoin="round" stroke-miterlimit="10" x1="90" y1="161.5" x2="85.8" y2="161.5"/>
	
		<line fill="none" stroke="#5C5F57" stroke-width="3" stroke-linecap="round" stroke-linejoin="round" stroke-miterlimit="10" x1="71.2" y1="138.5" x2="57.9" y2="138.5"/>
	
		<line fill="none" stroke="#5C5F57" stroke-width="3" stroke-linecap="round" stroke-linejoin="round" stroke-miterlimit="10" x1="125.6" y1="218.6" x2="148.8" y2="218.6"/>
	
		<line fill="none" stroke="#5C5F57" stroke-width="3" stroke-linecap="round" stroke-linejoin="round" stroke-miterlimit="10" x1="156.2" y1="218.6" x2="159.6" y2="218.6"/>
	<path fill="none" stroke="#5C5F57" stroke-width="3" stroke-linecap="round" stroke-linejoin="round" stroke-miterlimit="10" d="
		M114.5,65.1c0.6-2.3,3.3-3.6,4.9-3.6"/>
	
		<line fill="none" stroke="#5C5F57" stroke-width="3" stroke-linecap="round" stroke-linejoin="round" stroke-miterlimit="10" x1="114" y1="68" x2="114" y2="68"/>
	
		<line fill="none" stroke="#5C5F57" stroke-width="3" stroke-linecap="round" stroke-linejoin="round" stroke-miterlimit="10" x1="115.8" y1="87" x2="115.8" y2="89.3"/>
	
		<line fill="none" stroke="#5C5F57" stroke-width="3" stroke-linecap="round" stroke-linejoin="round" stroke-miterlimit="10" x1="125.7" y1="86.5" x2="125.7" y2="88.8"/>
	
		<line fill="none" stroke="#5C5F57" stroke-width="3" stroke-linecap="round" stroke-linejoin="round" stroke-miterlimit="10" x1="135.7" y1="87" x2="135.7" y2="89.3"/>
	
		<line fill="none" stroke="#5C5F57" stroke-width="3" stroke-linecap="round" stroke-linejoin="round" stroke-miterlimit="10" x1="135.7" y1="170.6" x2="135.7" y2="168.4"/>
	
		<line fill="none" stroke="#5C5F57" stroke-width="3" stroke-linecap="round" stroke-linejoin="round" stroke-miterlimit="10" x1="125.7" y1="171.1" x2="125.7" y2="168.9"/>
	
		<line fill="none" stroke="#5C5F57" stroke-width="3" stroke-linecap="round" stroke-linejoin="round" stroke-miterlimit="10" x1="115.8" y1="170.6" x2="115.8" y2="168.4"/>
	
		<line fill="none" stroke="#5C5F57" stroke-width="3" stroke-linecap="round" stroke-linejoin="round" stroke-miterlimit="10" x1="107.2" y1="169.8" x2="107.2" y2="167.5"/>
	
		<line fill="none" stroke="#5C5F57" stroke-width="3" stroke-linecap="round" stroke-linejoin="round" stroke-miterlimit="10" x1="143.2" y1="169.8" x2="143.2" y2="167.5"/>
	<path fill="none" stroke="#5C5F57" stroke-width="3" stroke-linecap="round" stroke-linejoin="round" stroke-miterlimit="10" d="
		M96.9,131c1.5-5.9,5.8-10.8,11.5-13.1"/>
	
		<line fill="none" stroke="#5C5F57" stroke-width="3" stroke-linecap="round" stroke-linejoin="round" stroke-miterlimit="10" x1="96.1" y1="135.1" x2="96.1" y2="135.1"/>
</g>
</svg>
